<svg width="18" height="18" viewBox="0 0 18 18" fill="none" xmlns="http://www.w3.org/2000/svg">
<path d="M9 16.5C13.1421 16.5 16.5 13.1421 16.5 9C16.5 4.85786 13.1421 1.5 9 1.5C4.85786 1.5 1.5 4.85786 1.5 9C1.5 13.1421 4.85786 16.5 9 16.5Z" stroke="#4F4F4F" stroke-width="1.5" stroke-linecap="round" stroke-linejoin="round"/>
<path d="M11.0832 6.50033C10.6622 6.07602 10.143 5.79955 9.58796 5.7041C9.03291 5.60865 8.46554 5.69827 7.95394 5.9622C7.44235 6.22614 7.00826 6.65317 6.70376 7.19207C6.39927 7.73097 6.2373 8.35884 6.2373 9.00033C6.2373 9.64182 6.39927 10.2697 6.70376 10.8086C7.00826 11.3475 7.44235 11.7745 7.95394 12.0385C8.46554 12.3024 9.03291 12.392 9.58796 12.2966C10.143 12.2011 10.6622 11.9246 11.0832 11.5003" stroke="#4F4F4F" stroke-width="1.5" stroke-linecap="round" stroke-linejoin="round"/>
</svg>
