<svg width="40" height="18" viewBox="0 0 40 18" fill="none" xmlns="http://www.w3.org/2000/svg">
<path d="M25.376 14V11.508H20.238V10.262L25.544 4.06H26.916V10.08H28.246V11.508H26.916V14H25.376ZM22.17 10.08H25.376V6.356L22.17 10.08ZM30.6117 14.112C30.285 14.112 30.0003 13.9953 29.7577 13.762C29.5243 13.5193 29.4077 13.23 29.4077 12.894C29.4077 12.5673 29.5243 12.2827 29.7577 12.04C30.0003 11.7973 30.285 11.676 30.6117 11.676C30.9477 11.676 31.2323 11.7973 31.4657 12.04C31.7083 12.2827 31.8297 12.5673 31.8297 12.894C31.8297 13.23 31.7083 13.5193 31.4657 13.762C31.2323 13.9953 30.9477 14.112 30.6117 14.112ZM34.9608 14H33.2248L37.7888 5.558H32.9028V4.06H39.6228V5.376L34.9608 14Z" fill="#4F4F4F"/>
<path d="M6.88867 2.90476L8.74267 6.85429L12.8887 7.49151L9.88867 10.5641L10.5967 14.9048L6.88867 12.8543L3.18067 14.9048L3.88867 10.5641L0.888672 7.49151L5.03467 6.85429L6.88867 2.90476Z" stroke="#F2C94C" stroke-width="1.5" stroke-linecap="round" stroke-linejoin="round"/>
</svg>
