<svg width="98" height="28" viewBox="0 0 98 28" fill="none" xmlns="http://www.w3.org/2000/svg">
<path d="M10.5749 24.0024C9.16903 23.9974 7.80738 23.511 6.71718 22.6244C5.62697 21.7378 4.87417 20.5046 4.58438 19.1305L4.48696 18.6548C3.84549 15.5885 3.84549 12.4229 4.48696 9.35661L4.58438 8.88088C4.87243 7.50525 5.62449 6.27005 6.71486 5.38173C7.80522 4.49341 9.16782 4.0058 10.5749 4.0004C11.2374 3.99957 11.8956 4.10694 12.5234 4.31827L12.8503 4.42639C15.5788 5.33731 18.1102 6.75553 20.3109 8.60626L20.5837 8.83547C21.3384 9.46853 21.9453 10.2589 22.3616 11.1512C22.778 12.0434 22.9937 13.0159 22.9937 14.0003C22.9937 14.9847 22.778 15.9572 22.3616 16.8494C21.9453 17.7417 21.3384 18.5321 20.5837 19.1651L20.3109 19.3944C18.1085 21.244 15.5757 22.6608 12.846 23.5699L12.5169 23.6802C11.8913 23.8917 11.2354 24.0005 10.5749 24.0024Z" fill="white"/>
<path d="M10.5753 8.00079C10.8036 8.00061 11.0303 8.03786 11.2465 8.11107L11.5734 8.22135C13.8264 8.97624 15.9167 10.1485 17.7349 11.6768L18.0077 11.8931C18.315 12.1506 18.562 12.4723 18.7315 12.8354C18.901 13.1985 18.9888 13.5943 18.9888 13.9949C18.9888 14.3955 18.901 14.7913 18.7315 15.1544C18.562 15.5175 18.315 15.8392 18.0077 16.0967L17.7349 16.3259C15.9164 17.8549 13.8263 19.0286 11.5734 19.7857L11.2573 19.8939C11.0411 19.9671 10.8144 20.0043 10.5861 20.0041C10.1004 20.0038 9.62964 19.8363 9.25307 19.5299C8.87649 19.2235 8.6171 18.7969 8.51857 18.3218L8.41898 17.8461C7.89286 15.3121 7.89286 12.6972 8.41898 10.1632L8.51857 9.68744C8.61585 9.21341 8.87327 8.78716 9.2477 8.48011C9.62214 8.17305 10.0908 8.00383 10.5753 8.00079ZM10.5753 0C8.24779 0.000642902 5.99155 0.802148 4.18636 2.2696C2.38117 3.73706 1.13725 5.78087 0.663985 8.05701L0.564395 8.53273C-0.188132 12.1368 -0.188132 15.8573 0.564395 19.4614L0.663985 19.9371C0.953848 21.3366 1.53744 22.6588 2.37627 23.8165C3.2151 24.9743 4.29013 25.9413 5.53045 26.6538C6.77078 27.3663 8.14823 27.808 9.57199 27.95C10.9957 28.0919 12.4335 27.9308 13.7903 27.4773L14.1172 27.367C17.3236 26.2974 20.2985 24.6319 22.8854 22.4584L23.1647 22.2292C24.367 21.2205 25.3337 19.9611 25.9969 18.5395C26.6602 17.118 27.0038 15.5686 27.0038 14.0003C27.0038 12.432 26.6602 10.8826 25.9969 9.46107C25.3337 8.0395 24.367 6.78014 23.1647 5.77138L22.8898 5.54217C20.3029 3.36867 17.3279 1.70323 14.1216 0.633576L13.7903 0.523295C12.7538 0.177189 11.6682 0.00048357 10.5753 0V0Z" fill="#00BBA4"/>
<path d="M51.3609 25.1852C49.9969 22.7662 48.5211 20.3775 46.9335 18.0191C45.3739 15.6985 43.6824 13.469 41.8674 11.3417V25.1809H37.165V4.05446H41.0425C41.7137 4.72624 42.4563 5.5501 43.2703 6.52605C44.0843 7.50201 44.9135 8.54355 45.7579 9.65069C46.6022 10.7578 47.4415 11.906 48.2758 13.0954C49.11 14.2847 49.8937 15.4278 50.6269 16.5249V4.05446H55.3596V25.1852H51.3609Z" fill="#122A3D"/>
<path d="M73.5516 17.1347C73.5659 18.3107 73.38 19.4806 73.0017 20.5945C72.6667 21.5894 72.126 22.503 71.4148 23.2758C70.719 24.0235 69.8707 24.6134 68.9272 25.0057C67.8966 25.4243 66.7922 25.6317 65.6797 25.6155C64.5765 25.6303 63.4816 25.4229 62.4604 25.0057C61.5161 24.6147 60.6676 24.0246 59.9728 23.2758C59.2589 22.4992 58.7082 21.5874 58.3534 20.5945C57.9567 19.4845 57.7603 18.3131 57.7732 17.1347C57.7587 15.9597 57.9605 14.7921 58.3686 13.69C58.7352 12.7012 59.2969 11.796 60.0205 11.0281C60.7278 10.2929 61.58 9.71202 62.5232 9.32199C63.5243 8.90861 64.5986 8.70121 65.6819 8.7122C66.7758 8.69939 67.8611 8.90678 68.8731 9.32199C69.8103 9.7114 70.6555 10.2926 71.3542 11.0281C72.0665 11.7948 72.6166 12.6972 72.9714 13.6813C73.3712 14.7882 73.5677 15.9581 73.5516 17.1347ZM68.9121 17.1347C68.9121 15.7334 68.6321 14.6306 68.072 13.8262C67.809 13.4377 67.4505 13.1231 67.0309 12.9126C66.6112 12.7021 66.1445 12.6027 65.6754 12.6239C65.2051 12.6049 64.7377 12.7052 64.3167 12.9155C63.8957 13.1257 63.5349 13.439 63.2679 13.8262C62.6906 14.6306 62.4019 15.7334 62.4019 17.1347C62.4019 18.5359 62.6906 19.6488 63.2679 20.4734C63.53 20.8686 63.8896 21.1899 64.312 21.4061C64.7344 21.6224 65.2054 21.7264 65.6797 21.7081C66.1522 21.728 66.6217 21.6246 67.0419 21.4081C67.4622 21.1916 67.8187 20.8694 68.0764 20.4734C68.6335 19.6545 68.9121 18.5416 68.9121 17.1347Z" fill="#122A3D"/>
<path d="M90.5861 17.1649C90.6023 18.348 90.4111 19.5248 90.021 20.642C89.6712 21.6328 89.1123 22.5369 88.3821 23.2931C87.6426 24.0442 86.7458 24.6224 85.756 24.9863C84.6224 25.3988 83.4226 25.6003 82.2162 25.5809C81.6663 25.5809 81.089 25.5557 80.4843 25.5052C79.8824 25.4533 79.2935 25.3885 78.7133 25.3063C78.1331 25.2241 77.5788 25.129 77.0506 25.0165C76.5223 24.9041 76.0525 24.7873 75.6455 24.6662V2.25752L80.192 1.52448V9.51445C80.7027 9.29061 81.2342 9.11751 81.7789 8.99765C82.3607 8.87144 82.9546 8.8098 83.5499 8.81384C84.5912 8.79265 85.6249 8.99546 86.5809 9.4085C87.4376 9.7906 88.1908 10.371 88.7783 11.1016C89.3946 11.8838 89.8507 12.7795 90.1206 13.7376C90.4402 14.8517 90.597 16.0061 90.5861 17.1649ZM85.9465 17.0438C85.9465 14.116 84.8676 12.6528 82.7099 12.6542C82.2413 12.6543 81.7748 12.7153 81.3221 12.8359C80.9291 12.9306 80.553 13.0853 80.2071 13.2943V21.5567C80.4236 21.5978 80.7159 21.6324 81.0623 21.6627C81.4087 21.693 81.7832 21.7081 82.1903 21.7081C83.433 21.7081 84.3711 21.2814 85.0047 20.428C85.6384 19.5745 85.9523 18.4465 85.9465 17.0438Z" fill="#122A3D"/>
<path d="M97.6678 4.51287C97.6876 4.8813 97.6253 5.24953 97.4852 5.59096C97.3452 5.93238 97.131 6.23848 96.8581 6.48712C96.3306 6.94981 95.6527 7.20497 94.9507 7.20497C94.2487 7.20497 93.5708 6.94981 93.0433 6.48712C92.7716 6.23942 92.558 5.93474 92.4181 5.59491C92.2781 5.25508 92.2151 4.88852 92.2336 4.52152C92.2151 4.15452 92.2781 3.78797 92.4181 3.44814C92.558 3.10831 92.7716 2.80362 93.0433 2.55592C93.5708 2.09324 94.2487 1.83807 94.9507 1.83807C95.6527 1.83807 96.3306 2.09324 96.8581 2.55592C97.1287 2.80268 97.3415 3.10596 97.4815 3.44419C97.6214 3.78242 97.685 4.1473 97.6678 4.51287ZM97.2348 25.1852H92.6883V9.14685H97.2348V25.1852Z" fill="#122A3D"/>
</svg>
