<svg width="18" height="18" viewBox="0 0 18 18" fill="none" xmlns="http://www.w3.org/2000/svg">
<path d="M9 11C7.89543 11 7 10.1046 7 9C7 7.89543 7.89543 7 9 7C10.1046 7 11 7.89543 11 9C11 10.1046 10.1046 11 9 11Z" stroke="#1A1D1C" stroke-width="1.5" stroke-linecap="round" stroke-linejoin="round"/>
<path d="M4.06634 11C4.15509 11.2011 4.18156 11.4241 4.14235 11.6404C4.10313 11.8567 4.00003 12.0562 3.84634 12.2133L3.80634 12.2533C3.68237 12.3772 3.58403 12.5242 3.51693 12.6861C3.44983 12.8479 3.41529 13.0214 3.41529 13.1967C3.41529 13.3719 3.44983 13.5454 3.51693 13.7073C3.58403 13.8691 3.68237 14.0162 3.80634 14.14C3.93017 14.264 4.07722 14.3623 4.23909 14.4294C4.40095 14.4965 4.57445 14.5311 4.74968 14.5311C4.9249 14.5311 5.0984 14.4965 5.26026 14.4294C5.42213 14.3623 5.56918 14.264 5.69301 14.14L5.73301 14.1C5.89013 13.9463 6.08969 13.8432 6.30595 13.804C6.52221 13.7648 6.74526 13.7913 6.94634 13.88C7.14352 13.9645 7.31169 14.1048 7.43014 14.2837C7.54859 14.4626 7.61215 14.6721 7.61301 14.8867L7.61301 15C7.61301 15.3536 7.75348 15.6928 8.00353 15.9428C8.25358 16.1929 8.59272 16.3333 8.94634 16.3333C9.29996 16.3333 9.6391 16.1929 9.88915 15.9428C10.1392 15.6928 10.2797 15.3536 10.2797 15L10.2797 14.94C10.2848 14.7193 10.3563 14.5053 10.4847 14.3258C10.6131 14.1463 10.7925 14.0095 10.9997 13.9333C11.2008 13.8446 11.4238 13.8181 11.6401 13.8573C11.8563 13.8965 12.0559 13.9996 12.213 14.1533L12.253 14.1933C12.3768 14.3173 12.5239 14.4156 12.6858 14.4827C12.8476 14.5498 13.0211 14.5844 13.1963 14.5844C13.3716 14.5844 13.5451 14.5498 13.7069 14.4827C13.8688 14.4156 14.0158 14.3173 14.1397 14.1933C14.2636 14.0695 14.362 13.9225 14.4291 13.7606C14.4962 13.5987 14.5307 13.4252 14.5307 13.25C14.5307 13.0748 14.4962 12.9013 14.4291 12.7394C14.362 12.5776 14.2636 12.4305 14.1397 12.3067L14.0997 12.2667C13.946 12.1095 13.8429 11.91 13.8037 11.6937C13.7645 11.4775 13.7909 11.2544 13.8797 11.0533C13.9642 10.8562 14.1045 10.688 14.2834 10.5695C14.4622 10.4511 14.6718 10.3875 14.8863 10.3867L14.9997 10.3867C15.3533 10.3867 15.6924 10.2462 15.9425 9.99614C16.1925 9.7461 16.333 9.40696 16.333 9.05334C16.333 8.69971 16.1925 8.36058 15.9425 8.11053C15.6924 7.86048 15.3533 7.72 14.9997 7.72L14.9397 7.72C14.719 7.71484 14.505 7.64341 14.3255 7.51501C14.1459 7.3866 14.0092 7.20716 13.933 7C13.8443 6.79892 13.8178 6.57587 13.857 6.35961C13.8962 6.14335 13.9993 5.94379 14.153 5.78667L14.193 5.74667C14.317 5.62284 14.4153 5.47579 14.4824 5.31392C14.5495 5.15206 14.5841 4.97856 14.5841 4.80333C14.5841 4.62811 14.5495 4.45461 14.4824 4.29275C14.4153 4.13088 14.317 3.98383 14.193 3.86C14.0692 3.73603 13.9221 3.63769 13.7603 3.57059C13.5984 3.50349 13.4249 3.46895 13.2497 3.46895C13.0745 3.46895 12.901 3.50349 12.7391 3.57059C12.5772 3.63769 12.4302 3.73603 12.3063 3.86L12.2663 3.9C12.1092 4.05369 11.9097 4.15679 11.6934 4.196C11.4771 4.23522 11.2541 4.20874 11.053 4.12L10.9997 4.12C10.8025 4.03549 10.6343 3.89517 10.5159 3.71631C10.3974 3.53745 10.3339 3.32786 10.333 3.11333L10.333 3C10.333 2.64638 10.1925 2.30724 9.94248 2.05719C9.69244 1.80714 9.3533 1.66667 8.99968 1.66667C8.64605 1.66667 8.30692 1.80714 8.05687 2.05719C7.80682 2.30724 7.66634 2.64638 7.66634 3L7.66634 3.06C7.66549 3.27453 7.60192 3.48412 7.48347 3.66298C7.36502 3.84184 7.19686 3.98216 6.99968 4.06667C6.7986 4.15541 6.57555 4.18188 6.35928 4.14267C6.14302 4.10346 5.94346 4.00036 5.78634 3.84667L5.74634 3.80667C5.62251 3.6827 5.47546 3.58435 5.3136 3.51725C5.15173 3.45016 4.97823 3.41562 4.80301 3.41562C4.62779 3.41562 4.45429 3.45016 4.29242 3.51725C4.13056 3.58435 3.98351 3.6827 3.85968 3.80667C3.73571 3.9305 3.63736 4.07755 3.57026 4.23941C3.50316 4.40128 3.46863 4.57478 3.46863 4.75C3.46863 4.92522 3.50316 5.09872 3.57026 5.26059C3.63736 5.42245 3.73571 5.5695 3.85968 5.69333L3.89968 5.73333C4.05337 5.89045 4.15647 6.09001 4.19568 6.30627C4.23489 6.52254 4.20842 6.74559 4.11968 6.94667L4.11968 7C4.03517 7.19718 3.89485 7.36535 3.71599 7.4838C3.53713 7.60225 3.32753 7.66581 3.11301 7.66667L2.99968 7.66667C2.64605 7.66667 2.30692 7.80714 2.05687 8.05719C1.80682 8.30724 1.66634 8.64638 1.66634 9C1.66634 9.35362 1.80682 9.69276 2.05687 9.94281C2.30692 10.1929 2.64605 10.3333 2.99968 10.3333L3.05968 10.3333C3.2742 10.3342 3.48379 10.3978 3.66265 10.5162C3.84151 10.6347 3.98183 10.8028 4.06634 11V11Z" stroke="#1D2123" stroke-width="1.5" stroke-linecap="round" stroke-linejoin="round"/>
</svg>
